Coordinates
version=1
nRows=17
nColumns=40
inDegrees=yes

Units are S.I. units (second, meters, Newtons, ...)
If the header above contains a line with 'inDegrees', this indicates whether rotational values are in degrees (yes) or radians (no).

endheader
time	pelvis_tilt	pelvis_list	pelvis_rotation	pelvis_tx	pelvis_ty	pelvis_tz	hip_flexion_r	hip_adduction_r	hip_rotation_r	knee_angle_r	knee_angle_r_beta	ankle_angle_r	subtalar_angle_r	mtp_angle_r	hip_flexion_l	hip_adduction_l	hip_rotation_l	knee_angle_l	knee_angle_l_beta	ankle_angle_l	subtalar_angle_l	mtp_angle_l	lumbar_extension	lumbar_bending	lumbar_rotation	arm_flex_r	arm_add_r	arm_rot_r	elbow_flex_r	pro_sup_r	wrist_flex_r	wrist_dev_r	arm_flex_l	arm_add_l	arm_rot_l	elbow_flex_l	pro_sup_l	wrist_flex_l	wrist_dev_l
      0.00000000	    -26.19414759	     -3.02732858	     13.42947054	      0.07457943	      1.27974160	     -0.01565044	     53.78601612	    -14.73530125	    -12.72062551	     47.19131166	      0.82364377	    -15.56775950	    -19.33797625	      0.00000000	    102.10065784	      1.18888768	      3.95899767	     99.98858545	      1.74513003	    -15.40748988	    -25.00964862	      0.00000000	    -27.25977432	     -2.62400324	     -4.80106114	     66.10823000	     14.57492349	    -63.88329390	     33.14931570	     77.72761256	      0.00000000	      0.00000000	     59.80670261	     23.31728737	    -40.35359473	     39.32833206	      2.37012497	      0.00000000	      0.00000000
      0.01700000	    -25.45222493	     -2.98768842	     13.12468806	      0.07446158	      1.28073094	     -0.01550474	     53.99138502	    -14.44610631	    -11.13146801	     50.88352482	      0.88808504	    -14.33511015	    -20.79838095	      0.00000000	    100.36971057	      1.12131081	      4.49963097	     97.17156614	      1.69596377	    -14.98212124	    -24.52648700	      0.00000000	    -27.90380290	     -2.59704286	     -4.46442741	     66.06026063	     14.57536455	    -63.67249710	     33.30506792	     78.64237963	      0.00000000	      0.00000000	     59.68795968	     23.30346431	    -40.22897028	     39.48438627	      2.60273710	      0.00000000	      0.00000000
      0.03300000	    -24.75476187	     -3.04751839	     12.79123560	      0.07420839	      1.28155225	     -0.01535506	     54.24374069	    -14.06089757	     -9.62526676	     54.43002164	      0.94998309	    -13.78428298	    -21.73287029	      0.00000000	     98.71020534	      1.06872680	      5.16621104	     94.34206790	      1.64657971	    -14.64580815	    -24.30072471	      0.00000000	    -28.46911184	     -2.49295060	     -4.05024584	     66.03990169	     14.57018965	    -63.51878326	     33.43499156	     79.18798566	      0.00000000	      0.00000000	     59.57498176	     23.33340308	    -40.17864192	     39.61438254	      2.65130925	      0.00000000	      0.00000000
      0.05000000	    -24.16902042	     -2.62094101	     12.29487227	      0.07410932	      1.28266227	     -0.01466854	     54.85507873	    -13.87736452	     -7.84675894	     58.19085237	      1.01562197	    -13.03428826	    -23.07077786	      0.00000000	     96.66664119	      0.65083603	      5.13414709	     91.24338250	      1.59249745	    -14.10808347	    -23.79512369	      0.00000000	    -29.10057430	     -2.99906472	     -3.72901163	     66.02445011	     14.60389505	    -63.38924498	     33.61926193	     80.16835357	      0.00000000	      0.00000000	     59.62291848	     23.33824708	    -40.20883720	     39.68129528	      2.67774854	      0.00000000	      0.00000000
      0.06700000	    -23.61151965	     -3.00735227	     11.87773823	      0.07417539	      1.28319084	     -0.01429457	     55.85518935	    -13.48071500	     -7.09744268	     62.28152718	      1.08701771	    -12.80499769	    -23.20508900	      0.00000000	     94.71260515	      0.24405571	      5.67335904	     88.15665847	      1.53862395	    -13.76249588	    -23.47151319	      0.00000000	    -29.47779894	     -2.61415362	     -3.09731537	     66.07007510	     14.56683212	    -63.16638378	     33.65570462	     80.15360558	      0.00000000	      0.00000000	     59.51915839	     23.37630713	    -40.19349801	     39.83398618	      3.26889346	      0.00000000	      0.00000000
      0.08300000	    -23.35557704	     -2.41449118	     11.42839675	      0.07420087	      1.28396533	     -0.01351897	     57.48180007	    -13.79440445	     -5.74451090	     66.65956880	      1.16342895	    -12.49701897	    -23.79378555	      0.00000000	     92.37042997	     -0.33892726	      4.83038851	     84.57359005	      1.47608761	    -13.37969783	    -23.15521444	      0.00000000	    -29.87426322	     -3.31988604	     -2.98255771	     66.13355045	     14.77002625	    -63.62852806	     34.30189323	     85.24503989	      0.00000000	      0.00000000	     59.69363781	     23.44033261	    -40.47697097	     39.93808901	      2.67958653	      0.00000000	      0.00000000
      0.10000000	    -23.00024720	     -2.36111513	     10.87721584	      0.07440229	      1.28454700	     -0.01269525	     59.03733372	    -13.62191735	     -4.73231824	     70.85685792	      1.23668547	    -12.39524265	    -24.18193897	      0.00000000	     89.93672171	     -1.03513278	      4.51508103	     81.03167362	      1.41426950	    -13.24632674	    -22.85288076	      0.00000000	    -30.20497093	     -3.47126251	     -2.51714533	     66.22849129	     14.79216520	    -63.49501444	     34.22582578	     85.31424038	      0.00000000	      0.00000000	     59.73128031	     23.43062898	    -40.57781992	     40.01420839	      2.68908742	      0.00000000	      0.00000000
      0.11700000	    -22.77181156	     -2.22941708	     10.26168441	      0.07452152	      1.28496186	     -0.01176979	     60.87091819	    -13.40681621	     -3.43761918	     75.02123236	      1.30936751	    -12.47117178	    -24.30249610	      0.00000000	     87.29709972	     -1.73980409	      4.01378710	     77.25144687	      1.34829210	    -13.22941075	    -22.77877131	      0.00000000	    -30.44591082	     -3.71845104	     -2.08356839	     66.30305749	     14.86710776	    -63.38906037	     34.17795753	     85.35540303	      0.00000000	      0.00000000	     59.74846363	     23.40753655	    -40.75966689	     40.11704370	      2.69480165	      0.00000000	      0.00000000
      0.13300000	    -22.66251133	     -2.03036695	      9.56752961	      0.07471668	      1.28519410	     -0.01075261	     62.95555807	    -13.13143053	     -1.96856164	     79.12850862	      1.38105301	    -12.62074425	    -24.21545299	      0.00000000	     84.49874026	     -2.47001760	      3.31349127	     73.25484988	      1.27853832	    -13.38086241	    -22.85042532	      0.00000000	    -30.56626682	     -4.05250029	     -1.64843120	     66.35456905	     14.93896133	    -63.17684484	     34.01614003	     84.93012616	      0.00000000	      0.00000000	     59.75476057	     23.34986295	    -41.06277199	     40.16179234	      3.00807208	      0.00000000	      0.00000000
      0.15000000	    -22.64362274	     -1.81155778	      8.84298384	      0.07481547	      1.28523817	     -0.00969634	     65.19896919	    -12.76961985	     -0.43924034	     83.03673082	      1.44926435	    -12.78877037	    -23.97028506	      0.00000000	     81.69280949	     -3.18365206	      2.48576666	     69.28105550	      1.20918253	    -13.75006290	    -23.15096479	      0.00000000	    -30.60054571	     -4.43239591	     -1.22244628	     66.36047450	     15.04917558	    -63.01430538	     33.94338560	     84.76875497	      0.00000000	      0.00000000	     59.75094486	     23.29010558	    -41.33138932	     40.23930188	      2.96664911	      0.00000000	      0.00000000
      0.16700000	    -22.66644728	     -1.65887548	      8.13460422	      0.07493388	      1.28523507	     -0.00857869	     67.47022493	    -12.30493128	      1.00550090	     86.70602479	      1.51330561	    -12.78850895	    -23.56329755	      0.00000000	     78.83076415	     -3.87101308	      1.72692734	     65.27149149	      1.13920243	    -14.35599183	    -23.11453221	      0.00000000	    -30.57596149	     -4.75824373	     -0.75250923	     66.34817263	     15.13185076	    -62.88016741	     33.86975547	     84.71251667	      0.00000000	      0.00000000	     59.68464819	     23.22117460	    -41.51760953	     40.31629848	      2.97445580	      0.00000000	      0.00000000
      0.18300000	    -22.84637648	     -1.38444158	      7.41727435	      0.07498267	      1.28496080	     -0.00748800	     70.00810814	    -11.83978440	      2.64073873	     90.22989719	      1.57480879	    -12.62243330	    -22.64315167	      0.00000000	     75.96615292	     -4.45335579	      0.72508505	     61.19673095	      1.06808445	    -15.15969933	    -23.42456200	      0.00000000	    -30.40417827	     -5.21196495	     -0.34770856	     66.29690934	     15.24845345	    -62.81705570	     33.83962606	     84.86387026	      0.00000000	      0.00000000	     59.57461404	     23.15953433	    -41.73066351	     40.40620673	      2.78587585	      0.00000000	      0.00000000
      0.20000000	    -22.96993138	     -1.18578923	      6.71022744	      0.07502150	      1.28476473	     -0.00637414	     72.47085992	    -11.23601243	      4.08513153	     93.46594702	      1.63128851	    -12.53276667	    -21.99806635	      0.00000000	     73.12230676	     -5.02935215	     -0.19699840	     57.32109450	      1.00044183	    -16.19464114	    -23.35578848	      0.00000000	    -30.26080962	     -5.58315757	      0.11413407	     66.23700847	     15.33649837	    -62.74354722	     33.82592623	     85.06400143	      0.00000000	      0.00000000	     59.46615912	     23.06320662	    -41.84450849	     40.43084831	      2.77142497	      0.00000000	      0.00000000
      0.21700000	    -23.05587539	     -0.92610974	      5.96795759	      0.07502519	      1.28464016	     -0.00519311	     74.96139668	    -10.52598315	      5.46856280	     96.45824250	      1.68351392	    -12.60141282	    -21.66182835	      0.00000000	     70.29110393	     -5.57330766	     -1.16910320	     53.68935177	      0.93705596	    -17.39128193	    -23.06471196	      0.00000000	    -30.13365438	     -6.04340444	      0.58158388	     66.17163752	     15.39204914	    -62.64305364	     33.73744732	     85.02644137	      0.00000000	      0.00000000	     59.38802357	     22.98464113	    -42.03672144	     40.42690467	      2.79841824	      0.00000000	      0.00000000
      0.23300000	    -23.14109757	     -0.69447042	      5.29412355	      0.07500904	      1.28449772	     -0.00412536	     77.46413856	     -9.78688958	      6.74583013	     99.19027071	      1.73119681	    -12.59545854	    -21.23169640	      0.00000000	     67.51466358	     -6.01925190	     -2.15642591	     50.28089345	      0.87756714	    -18.81637925	    -22.87521501	      0.00000000	    -29.99244054	     -6.43459434	      1.01276670	     66.10379250	     15.47599359	    -62.57835137	     33.67874137	     85.06824391	      0.00000000	      0.00000000	     59.27256119	     22.89481317	    -42.13727106	     40.43635328	      2.78428400	      0.00000000	      0.00000000
      0.25000000	    -23.22941522	     -0.42828149	      4.70867713	      0.07497227	      1.28430453	     -0.00320169	     79.98152689	     -9.08336040	      7.89812553	    101.62232595	      1.77364418	    -12.68155090	    -20.91034005	      0.00000000	     64.87177362	     -6.33117719	     -3.17782517	     47.19794949	      0.82375962	    -20.24627055	    -22.78714767	      0.00000000	    -29.83241899	     -6.85239530	      1.35523715	     65.98801977	     15.58483845	    -62.56574496	     33.67628512	     85.00538576	      0.00000000	      0.00000000	     59.14768939	     22.78464842	    -42.24791777	     40.41960177	      2.81389791	      0.00000000	      0.00000000
      0.26700000	    -23.24968988	     -0.44503375	      4.28698049	      0.07475638	      1.28422586	     -0.00251241	     82.37774832	     -8.30048804	      8.62809914	    103.72334223	      1.81031383	    -12.76849399	    -20.93855724	      0.00000000	     62.43964035	     -6.67925093	     -3.91996737	     44.54177286	      0.77740059	    -21.73601960	    -22.30016415	      0.00000000	    -29.72870428	     -6.92059384	      1.71767779	     65.94545805	     15.66846507	    -62.55782437	     33.63691953	     84.90076152	      0.00000000	      0.00000000	     59.01385826	     22.72086579	    -42.31347162	     40.48726026	      2.92186902	      0.00000000	      0.00000000
